<svg xmlns="http://www.w3.org/2000/svg" xmlns:xlink="http://www.w3.org/1999/xlink" id="Untitled-P%E1gina%201" viewBox="0 0 85 32" style="background-color:#ffffff00" xml:space="preserve" x="0px" y="0px" width="85px" height="32px">	<g>		<path d="M 75.65 0 C 73.7963 0 68.2615 1.4852 66.7035 18.5264 L 65.528 18.5264 C 63.4263 2.6578 57.873 0 54.4 0 C 50.9269 0 45.3738 2.6578 43.272 18.5264 L 41.728 18.5264 C 39.6263 2.6578 34.0732 0 30.6 0 C 27.127 0 21.5737 2.6578 19.4722 18.5264 L 18.2968 18.5264 C 16.7385 1.4852 11.2037 0 9.3502 0 C 5.1782 0 0.1711 4.3799 0.0001 25.2484 C -0.0114 26.6727 1.0046 28.3965 2.7263 28.8141 L 2.7279 28.8141 C 6.1361 29.6365 10.2367 30.1415 14.9133 30.3141 C 14.9631 30.3157 15.0131 30.3174 15.0627 30.3174 C 16.0555 30.3174 17.0083 29.9441 17.6975 29.2797 C 18.3547 28.6448 18.71 27.8093 18.7001 26.9277 C 18.6793 25.1282 18.6213 23.4622 18.5358 21.8948 L 19.0968 21.8948 C 18.9143 23.8898 18.7798 26.0593 18.7035 28.4227 C 18.672 29.3734 19.0305 30.3059 19.6879 30.9785 C 20.3322 31.6365 21.1903 32 22.1068 32 L 39.0934 32 C 40.0099 32 40.8682 31.6365 41.5123 30.9785 C 42.1697 30.3059 42.5283 29.3734 42.4967 28.4227 C 42.4204 26.0593 42.2858 23.8898 42.1034 21.8948 L 42.8969 21.8948 C 42.7142 23.8898 42.5797 26.0593 42.5033 28.4227 C 42.4718 29.3734 42.8303 30.3059 43.4878 30.9785 C 44.132 31.6365 44.9904 32 45.9066 32 L 62.8933 32 C 63.8097 32 64.6678 31.6365 65.3121 30.9785 C 65.9696 30.3059 66.328 29.3734 66.2966 28.4227 C 66.2202 26.0593 66.0858 23.8898 65.9032 21.8948 L 66.4644 21.8948 C 66.3788 23.4622 66.3207 25.1282 66.2999 26.9277 C 66.29 27.8093 66.6453 28.6448 67.3026 29.2797 C 67.9917 29.9441 68.9447 30.3174 69.9373 30.3174 C 69.9872 30.3174 70.0353 30.3157 70.0851 30.3141 C 74.7633 30.1415 78.864 29.6365 82.2722 28.8141 L 82.2738 28.8141 C 83.9954 28.3965 85.0115 26.6727 84.9999 25.25 C 84.829 4.3799 79.8218 0 75.65 0 ZM 15.3284 26.8618 C 15.3118 26.8816 15.2469 26.9375 15.0413 26.949 C 10.6068 26.7844 6.7454 26.3141 3.5646 25.5493 C 3.4966 25.4984 3.4084 25.3503 3.4003 25.2764 C 3.533 9.1069 6.6871 3.3684 9.3502 3.3684 C 10.3538 3.3684 13.6765 6.2073 14.8867 18.5264 L 13.1287 18.5264 C 12.5392 17.5229 11.4552 16.8422 10.2002 16.8422 C 8.3225 16.8422 6.8002 18.3503 6.8002 20.2104 C 6.8002 22.0708 8.3225 23.579 10.2002 23.579 C 11.4552 23.579 12.5392 22.8979 13.1287 21.8948 L 15.145 21.8948 C 15.2354 23.4391 15.3052 25.0625 15.3284 26.8618 ZM 30.6 3.3684 C 34.6526 3.3684 37.0538 10.301 38.2343 18.5264 L 33.5284 18.5264 C 32.9393 17.5229 31.8552 16.8422 30.6 16.8422 C 29.345 16.8422 28.261 17.5229 27.6715 18.5264 L 22.9585 18.5264 C 24.1387 10.3208 26.5419 3.3684 30.6 3.3684 ZM 39.0934 28.6316 L 22.1068 28.6316 L 22.1001 28.5313 C 22.1707 26.3535 22.3152 24.1069 22.5392 21.8948 L 27.6715 21.8948 C 28.261 22.8979 29.345 23.579 30.6 23.579 C 31.8552 23.579 32.9393 22.8979 33.5284 21.8948 L 38.651 21.8948 C 38.8776 24.1365 39.0228 26.4177 39.0934 28.6316 ZM 54.4 3.3684 C 58.4515 3.3684 60.853 10.2993 62.0226 18.5264 L 57.3285 18.5264 C 56.739 17.5229 55.655 16.8422 54.4 16.8422 C 53.1449 16.8422 52.0608 17.5229 51.4716 18.5264 L 46.7583 18.5264 C 47.9387 10.3208 50.3418 3.3684 54.4 3.3684 ZM 62.8652 28.6316 L 45.9 28.5313 C 45.9706 26.3535 46.115 24.1069 46.3392 21.8948 L 51.4716 21.8948 C 52.0608 22.8979 53.1449 23.579 54.4 23.579 C 55.655 23.579 56.739 22.8979 57.3285 21.8948 L 62.4351 21.8948 C 62.6584 24.1365 62.7994 26.416 62.8652 28.6316 ZM 81.4354 25.5493 C 78.2546 26.3141 74.3932 26.7844 69.9572 26.949 C 69.8594 26.9424 69.7712 26.9243 69.7297 26.9243 C 69.7131 26.9243 69.7032 26.9292 69.7 26.9407 C 69.7207 25.1118 69.7904 23.4604 69.8801 21.8948 L 71.8713 21.8948 C 72.4608 22.8979 73.5448 23.579 74.7998 23.579 C 76.6776 23.579 78.2 22.0708 78.2 20.2104 C 78.2 18.3503 76.6776 16.8422 74.7998 16.8422 C 73.5448 16.8422 72.4608 17.5229 71.8713 18.5264 L 70.1349 18.5264 C 71.3336 6.199 74.6471 3.3684 75.65 3.3684 C 78.3129 3.3684 81.4672 9.1069 81.5999 25.2665 C 81.5917 25.3486 81.5035 25.4984 81.4354 25.5493 Z" fill="#8dbd39"></path>	</g></svg>