<svg xmlns="http://www.w3.org/2000/svg" xmlns:xlink="http://www.w3.org/1999/xlink" id="Untitled-Page%201" viewBox="0 0 41 82" style="background-color:#ffffff00" xml:space="preserve" x="0px" y="0px" width="41px" height="82px">	<g id="Layer%201">		<g>			<path d="M 14.719 25.5758 L 14.719 22.5623 C 13.4109 22.2458 12.1724 21.9603 10.9821 21.9603 C 8.1331 21.9603 0 24.1971 0 34.1331 C 0 37.9272 0.738 40.8184 1.5847 43.2083 C 2.3105 44.2657 2.9677 45.8467 3.1261 48.165 C 3.3965 48.4404 3.5992 48.7001 3.7222 48.8691 C 3.9318 49.5585 4.099 50.2412 4.1719 50.9419 C 4.3033 52.2062 4.4071 53.7821 4.5247 55.5696 C 4.8284 60.1787 5.2058 65.9149 6.3335 71.6322 C 7.5203 77.651 8.3774 82 11.6627 82 C 14.5333 82 15.2026 77.7112 16.0507 72.2799 C 16.2223 71.1772 16.3951 70.0675 16.5869 69.0236 C 17.0759 66.3479 18.566 58.2037 20.5 58.2037 C 22.434 58.2037 23.924 66.3479 24.4131 69.0236 C 24.6047 70.0675 24.7777 71.1772 24.9493 72.2799 C 25.7974 77.7112 26.4667 82 29.3373 82 C 32.6226 82 33.4797 77.651 34.6665 71.6322 C 35.7942 65.9149 36.1716 60.1787 36.4753 55.5696 C 36.5929 53.7821 36.6967 52.2062 36.8281 50.9419 L 36.8912 50.4724 C 36.8771 50.2554 36.8723 50.0627 36.8768 49.8993 C 36.9369 47.7357 38.1368 45.3335 39.3236 43.4684 C 40.2079 41.0293 41 38.0643 41 34.1331 C 41 24.1971 32.8669 21.9603 30.0179 21.9603 C 28.7782 21.9603 27.4855 22.2722 26.1169 22.6039 C 24.7319 22.9379 23.1918 23.3123 21.4634 23.4192 L 21.4634 26.3507 C 23.5288 26.2422 25.3239 25.8085 26.8046 25.45 C 28.051 25.1494 29.127 24.8893 30.0179 24.8893 C 32.1069 24.8893 38.0714 26.5879 38.0714 34.1331 C 38.0714 38.8865 36.793 42.0242 35.6649 44.7915 C 34.877 46.7263 34.1326 48.5525 33.915 50.6389 C 33.78 51.9331 33.6736 53.5461 33.5527 55.3779 C 33.2975 59.2585 32.9852 63.9541 32.2142 68.7012 L 32.2142 63.0848 C 32.2142 60.0159 31.6737 57.4658 30.7699 55.3881 C 31.1096 53.7606 32.2142 48.0491 32.2142 42.5304 C 32.2142 39.4486 30.0079 38.0685 27.8213 38.0685 C 27.005 38.0685 26.0485 38.3488 24.9407 38.6736 C 23.8571 38.9911 22.6593 39.3403 21.4634 39.4749 L 21.4634 42.4186 C 23.0377 42.2822 24.5265 41.8466 25.7638 41.4836 C 26.5801 41.2449 27.4248 40.9974 27.8213 40.9974 C 29.1121 40.9974 29.2855 41.7726 29.2855 42.5304 C 29.2855 45.8501 28.8474 49.316 28.449 51.7843 C 26.2599 49.4354 23.3749 48.3193 20.5 48.3193 C 17.625 48.3193 14.7401 49.4354 12.551 51.7843 C 12.1526 49.316 11.7145 45.8501 11.7145 42.5304 C 11.7145 41.7726 11.8879 40.9974 13.1786 40.9974 C 13.4915 40.9974 14.0824 41.1499 14.719 41.3322 L 14.719 38.2981 C 14.1583 38.1587 13.6455 38.0685 13.1786 38.0685 C 10.9921 38.0685 8.7858 39.4486 8.7858 42.5304 C 8.7858 48.0491 9.8904 53.7606 10.2301 55.3881 C 9.3262 57.4658 8.7858 60.0159 8.7858 63.0848 L 8.7858 68.7012 C 8.0148 63.9541 7.7025 59.2585 7.447 55.3779 C 7.3264 53.5461 7.22 51.9331 7.085 50.6389 C 6.9955 49.7809 6.8025 48.9722 6.5684 48.1771 C 6.5571 48.0582 6.5135 47.9459 6.472 47.8308 C 6.1511 46.8119 5.7528 45.8159 5.3351 44.7915 C 4.207 42.0242 2.9286 38.8865 2.9286 34.1331 C 2.9286 26.5879 8.8931 24.8893 10.9821 24.8893 C 11.8729 24.8893 12.949 25.1494 14.1953 25.45 L 14.719 25.5758 ZM 11.7145 63.0848 C 11.7145 55.8943 15.1628 51.248 20.5 51.248 C 25.8372 51.248 29.2855 55.8943 29.2855 63.0848 L 29.2855 78.5973 C 28.6887 77.228 28.1716 73.9381 27.843 71.8279 C 27.667 70.6996 27.4896 69.564 27.2944 68.4974 C 26.2164 62.6072 24.8757 55.275 20.5 55.275 C 16.1243 55.275 14.7836 62.6072 13.7054 68.4974 C 13.5104 69.564 13.333 70.6996 13.157 71.8279 C 12.8284 73.9381 12.3113 77.228 11.7145 78.5973 L 11.7145 63.0848 Z" fill="#8dbd39"></path>			<path d="M 26.9249 0.03 L 26.8484 0.1825 L 26.832 0.2273 L 22.2028 12.8879 L 21.3728 15.1545 L 22.187 15.3817 C 21.4241 18.0398 20.7209 20.6625 19.9164 23.2559 C 19.3784 24.9902 18.9393 26.7208 18.6069 28.449 C 17.8879 32.1873 17.6631 35.9099 17.9819 39.6036 C 18.25 42.7081 18.7429 45.7544 19.6912 48.6687 C 19.8147 49.0491 19.9799 49.4159 20.1252 49.7883 C 19.9342 48.3217 19.6038 46.8896 19.368 45.4326 C 18.8014 41.9277 18.5302 38.3513 18.7019 34.6923 C 18.8051 32.4927 18.9866 30.2743 19.6787 28.0994 C 20.879 24.3267 22.2367 20.5619 23.5398 16.7656 C 23.65 16.444 23.7729 16.1244 23.8947 15.7911 L 24.6301 15.916 L 30.1747 0.8551 L 27.1635 0 L 26.9249 0.03 ZM 17.7385 34.6923 C 17.8362 32.611 18.0028 30.5115 18.6069 28.449 C 18.9393 26.7208 19.3784 24.9902 19.9164 23.2559 C 20.7209 20.6625 21.4241 18.0398 22.187 15.3817 L 21.3728 15.1545 L 22.2028 12.8879 L 26.832 0.2273 L 26.8484 0.1825 L 26.2001 0 L 25.9615 0.03 C 25.9302 0.0956 25.8932 0.1598 25.8687 0.2273 L 21.2394 12.8879 L 20.4094 15.1545 L 21.2238 15.3817 C 20.4608 18.0398 19.7576 20.6625 18.953 23.2559 C 17.2515 28.7415 16.5521 34.2021 17.0186 39.6036 C 17.2866 42.7081 17.7795 45.7544 18.7279 48.6687 C 18.8514 49.0491 19.0166 49.4159 19.1619 49.7883 C 18.9709 48.3217 18.6404 46.8896 18.4047 45.4326 C 17.838 41.9277 17.5669 38.3513 17.7385 34.6923 Z" fill="#8dbd39"></path>		</g>	</g></svg>