<svg xmlns="http://www.w3.org/2000/svg" xmlns:xlink="http://www.w3.org/1999/xlink" id="Untitled-P%E1gina%201" viewBox="0 0 45 56" style="background-color:#ffffff00" xml:space="preserve" x="0px" y="0px" width="45px" height="56px">	<g>		<path d="M 13.2915 31.9791 C 13.1004 31.5995 12.7098 31.36 12.2823 31.36 L 12.2823 21.7864 C 12.2823 21.1443 12.0036 20.5319 11.5155 20.1042 L 4.1905 13.7134 C 3.5421 13.1338 3.2044 12.3058 3.2633 11.4428 C 3.3223 10.5777 3.7707 9.8022 4.4896 9.3177 L 15.17 2.1613 C 15.6862 1.8145 15.8222 1.1189 15.4741 0.6059 C 15.1254 0.0941 14.4252 -0.0416 13.9074 0.3041 L 3.2242 7.4626 C 1.9247 8.3398 1.1188 9.7344 1.0119 11.2908 C 0.9056 12.8461 1.5138 14.3358 2.691 15.3869 L 10.0259 21.7864 L 10.0259 31.36 C 9.5984 31.36 9.2079 31.5995 9.0167 31.9791 L 5.6321 38.699 C 5.5539 38.8544 5.5131 39.0261 5.5131 39.2 L 5.5131 54.88 C 5.5131 55.4991 6.0183 56 6.6413 56 L 15.6669 56 C 16.2899 56 16.7951 55.4991 16.7951 54.88 L 16.7951 39.2 C 16.7951 39.0261 16.7543 38.8544 16.6761 38.699 L 13.2915 31.9791 ZM 14.5387 53.76 L 7.7695 53.76 L 7.7695 39.4647 L 10.7233 33.6 L 11.5849 33.6 L 14.5387 39.4647 L 14.5387 53.76 Z" fill="#8dbd39"></path>		<path d="M 45 11.2 C 45 5.0247 39.9391 0 33.718 0 C 27.497 0 22.4361 5.0247 22.4361 11.2 C 22.4361 16.998 26.8965 21.7798 32.5898 22.3431 L 32.5898 31.36 C 32.1624 31.36 31.7718 31.5995 31.5806 31.9791 L 28.196 38.699 C 28.1178 38.8544 28.0771 39.0261 28.0771 39.2 L 28.0771 54.88 C 28.0771 55.4991 28.5822 56 29.2053 56 L 38.2308 56 C 38.8539 56 39.359 55.4991 39.359 54.88 L 39.359 39.2 C 39.359 39.0261 39.3183 38.8544 39.24 38.699 L 35.8554 31.9791 C 35.6643 31.5995 35.2737 31.36 34.8462 31.36 L 34.8462 22.3431 C 40.5396 21.7798 45 16.998 45 11.2 ZM 37.1026 39.4647 L 37.1026 53.76 L 30.3334 53.76 L 30.3334 39.4647 L 33.2873 33.6 L 34.1488 33.6 L 37.1026 39.4647 ZM 24.6925 11.2 C 24.6925 6.2595 28.7414 2.24 33.718 2.24 C 38.6947 2.24 42.7436 6.2595 42.7436 11.2 C 42.7436 16.1405 38.6947 20.16 33.718 20.16 C 28.7414 20.16 24.6925 16.1405 24.6925 11.2 Z" fill="#8dbd39"></path>	</g></svg>