<svg xmlns="http://www.w3.org/2000/svg" xmlns:xlink="http://www.w3.org/1999/xlink" id="Untitled-P%E1gina%201" viewBox="0 0 63 58" style="background-color:#ffffff00" xml:space="preserve" x="0px" y="0px" width="63px" height="58px">	<g>		<path d="M 41.3258 45.5455 C 40.4386 43.9399 38.5756 43.1409 36.8241 43.6463 C 33.1451 44.6301 28.536 43.9647 25.0929 42.0779 C 23.5443 41.2294 21.6307 41.4954 20.385 42.7539 C 18.5157 44.6422 18.9633 47.8231 21.2874 49.095 C 26.5929 51.9981 33.5233 52.8699 38.9597 51.3194 C 41.4094 50.6182 42.5657 47.79 41.3258 45.5455 Z" stroke="#8dbd39" stroke-width="2" fill="none"></path>		<path d="M 4.0321 32.5862 C 5.1438 36.1162 5.7637 39.6684 5.3669 43.0016 C 5.1793 44.5772 6.2278 46.04 7.7656 46.3636 C 9.6005 46.7498 11.5909 47.0007 13.5853 47.1431 L 13.5853 47.1431 " stroke="#8dbd39" stroke-width="2" fill="none"></path>		<path d="M 9.2301 31.8922 C 8.3956 32.5235 7.3591 32.8973 6.2366 32.8973 C 3.4755 32.8973 1.2372 30.6363 1.2372 27.8469 C 1.2372 27.2443 1.3416 26.6664 1.5333 26.1305 L 1.5333 26.1305 " stroke="#8dbd39" stroke-width="2" fill="none"></path>		<path d="M 35.0813 56.9999 L 23.6106 56.9999 L 23.6106 56.9999 " stroke="#8dbd39" stroke-width="2" fill="none"></path>		<path d="M 19.3149 56.9999 L 16.1675 56.9999 C 14.7413 56.9999 13.5852 55.832 13.5852 54.3913 L 13.5852 45.9305 C 13.5852 42.4804 14.7865 39.3135 16.7894 36.8338 L 16.7894 36.8338 " stroke="#8dbd39" stroke-width="2" fill="none"></path>		<path d="M 33.9116 31.1177 C 31.0181 34.9832 26.4286 37.481 21.2617 37.481 C 13.897 37.481 7.7053 32.4064 5.926 25.5296 L 5.926 25.5296 " stroke="#8dbd39" stroke-width="2" fill="none"></path>		<path d="M 30.0316 3.3383 C 27.1602 1.8402 24.0789 1 21.2617 1 C 10.0715 1 1 10.1643 1 21.469 C 1 23.0706 1.1895 24.6349 1.5338 26.1306 C 6.8053 26.3707 21.2617 20.9741 23.675 10.6913 C 23.675 10.6913 28.9463 14.7115 35.1877 16.5132 L 35.1877 16.5132 " stroke="#8dbd39" stroke-width="2" fill="none"></path>		<path d="M 40.1014 14.3483 C 38.8956 10.9122 36.5303 7.9386 33.6515 5.6758 L 33.6515 5.6758 " stroke="#8dbd39" stroke-width="2" fill="none"></path>		<path d="M 52.9628 46.4863 L 52.9628 54.3913 C 52.9628 55.832 51.8066 57 50.3805 57 L 35.0813 57 C 33.6554 57 32.4991 55.8321 32.4991 54.3913 L 32.4991 52.0663 L 32.4991 52.0663 " stroke="#8dbd39" stroke-width="2" fill="none"></path>		<path d="M 32.6779 44.0906 C 33.2582 40.9929 35.2063 38.3841 37.864 36.9296 L 37.864 36.9296 " stroke="#8dbd39" stroke-width="2" fill="none"></path>		<path d="M 54.2426 38.0957 C 55.6147 38.1516 56.9193 38.9299 57.5955 40.2502 C 58.5981 42.2078 57.8401 44.616 55.9023 45.6289 L 55.0913 46.0528 C 53.1537 47.0657 50.7699 46.2998 49.7673 44.3422 C 48.9858 42.8163 49.2739 41.0172 50.3564 39.8179 L 50.3564 39.8179 " stroke="#8dbd39" stroke-width="2" fill="none"></path>		<path d="M 41.2159 45.3743 C 41.6974 45.2357 42.2054 45.1614 42.731 45.1614 C 45.7742 45.1614 48.2413 47.6538 48.2413 50.7282 L 48.2413 56.9999 L 48.2413 56.9999 " stroke="#8dbd39" stroke-width="2" fill="none"></path>		<path d="M 37.2207 56.9999 L 37.2207 51.7248 L 37.2207 51.7248 " stroke="#8dbd39" stroke-width="2" fill="none"></path>		<path d="M 46.0117 20.1913 C 46.0002 20.1321 45.983 20.074 45.9591 20.017 C 43.2456 13.5125 37.0151 13.826 37.0151 13.826 C 37.0151 13.826 32.5568 18.0051 35.0568 24.3721 L 35.0568 24.3721 " stroke="#8dbd39" stroke-width="2" fill="none"></path>		<path d="M 51.052 21.6703 C 57.0084 17.9803 61.8917 21.9018 61.8917 21.9018 C 61.8917 21.9018 63.0365 27.578 57.8818 31.2982 L 57.8818 31.2982 " stroke="#8dbd39" stroke-width="2" fill="none"></path>		<path d="M 33.9075 26.8265 C 35.3403 21.5872 41.8052 18.8203 48.347 20.6461 C 54.8892 22.472 59.0309 28.1994 57.5981 33.4385 C 56.1655 38.6777 49.7006 41.4448 43.1584 39.619 C 36.6166 37.793 32.4746 32.0657 33.9075 26.8265 Z" stroke="#8dbd39" stroke-width="2" fill="none"></path>		<path d="M 17.975 27.1738 C 17.6779 26.3687 16.791 25.9591 15.9939 26.2592 C 15.1968 26.5592 14.7915 27.4552 15.0885 28.2604 L 15.0885 28.2604 " stroke="#8dbd39" stroke-width="2" fill="none"></path>		<path d="M 27.9894 23.4041 C 27.6925 22.5989 28.0979 21.7028 28.8949 21.4028 C 29.692 21.1028 30.579 21.5124 30.876 22.3175 L 30.876 22.3175 " stroke="#8dbd39" stroke-width="2" fill="none"></path>		<g>			<g>				<path d="M 45.3365 31.0454 C 45.0504 31.8455 44.1765 32.2595 43.3848 31.9706 C 42.593 31.6817 42.1829 30.7989 42.4689 29.999 L 42.4689 29.999 " stroke="#8dbd39" stroke-width="2" fill="none"></path>				<path d="M 48.204 32.0917 C 47.918 32.8918 47.0442 33.306 46.2524 33.0171 C 45.4604 32.7282 45.0504 31.8453 45.3367 31.0454 L 45.3367 31.0454 " stroke="#8dbd39" stroke-width="2" fill="none"></path>			</g>			<path d="M 41.0229 28.1331 C 41.2953 27.3715 40.9048 26.5306 40.1508 26.2556 C 39.3967 25.9805 38.5646 26.3749 38.2924 27.1367 L 38.2924 27.1367 " stroke="#8dbd39" stroke-width="2" fill="none"></path>			<path d="M 50.4965 31.5899 C 50.7689 30.8283 51.601 30.4338 52.355 30.7089 C 53.109 30.9841 53.4996 31.8246 53.2272 32.5864 L 53.2272 32.5864 " stroke="#8dbd39" stroke-width="2" fill="none"></path>		</g>		<path d="M 29.5625 26.125 C 29.5625 26.125 26.0625 31.0625 19.0625 31.375 C 19.0625 31.375 25.8125 34.5625 28.5 32 C 30.9009 29.7108 29.5625 26.125 29.5625 26.125 Z" stroke="#8dbd39" stroke-width="2" fill="none"></path>	</g></svg>