<svg xmlns="http://www.w3.org/2000/svg" xmlns:xlink="http://www.w3.org/1999/xlink" id="Untitled-Page%201" viewBox="0 0 96 70" style="background-color:#ffffff00" xml:space="preserve" x="0px" y="0px" width="96px" height="70px">	<g id="Layer%201">		<g>			<g>				<path d="M 20.7017 2.4136 C 21.4352 2.4136 22.321 2.6278 23.3474 2.8755 C 24.7524 3.2159 26.5015 3.639 28.5385 3.639 C 30.5754 3.639 32.3243 3.2159 33.7295 2.8755 C 34.7559 2.6278 35.6416 2.4136 36.3752 2.4136 C 38.0953 2.4136 43.0063 3.8132 43.0063 10.0306 C 43.0063 13.9474 41.9536 16.533 41.0249 18.8132 C 40.3761 20.4076 39.7632 21.9124 39.5841 23.6317 C 39.4728 24.698 39.3851 26.0272 39.2858 27.5366 C 39.0756 30.7344 38.8184 34.6036 38.1836 38.5153 L 38.1836 33.8872 C 38.1836 31.3583 37.7385 29.2572 36.9944 27.5449 C 37.2742 26.204 38.1836 21.4976 38.1836 16.9501 C 38.1836 14.4106 36.3669 13.2734 34.5665 13.2734 C 33.8944 13.2734 33.1068 13.5044 32.1948 13.772 C 31.0624 14.1041 29.7784 14.4801 28.5385 14.4801 C 27.2985 14.4801 26.0145 14.1041 24.882 13.772 C 23.9701 13.5044 23.1825 13.2734 22.5101 13.2734 C 20.71 13.2734 18.8933 14.4106 18.8933 16.9501 C 18.8933 21.4976 19.8027 26.204 20.0825 27.5449 C 19.3383 29.2572 18.8933 31.3583 18.8933 33.8872 L 18.8933 38.5153 C 18.2585 34.6036 18.0013 30.7344 17.7911 27.5366 C 17.6918 26.0272 17.6041 24.698 17.4928 23.6317 C 17.4193 22.9246 17.2603 22.2582 17.0676 21.6031 C 17.0582 21.5052 17.0225 21.4126 16.9882 21.3177 C 16.724 20.4781 16.396 19.6575 16.0521 18.8132 C 15.1233 16.533 14.0706 13.9474 14.0706 10.0306 C 14.0706 3.8132 18.9816 2.4136 20.7017 2.4136 ZM 35.0835 24.5754 C 33.2811 22.6399 30.9055 21.7203 28.5385 21.7203 C 26.1713 21.7203 23.7959 22.6399 21.9935 24.5754 C 21.6654 22.5415 21.3047 19.6855 21.3047 16.9501 C 21.3047 16.3256 21.4476 15.6868 22.5101 15.6868 C 22.8368 15.6868 23.5321 15.8907 24.2043 16.0875 C 25.4288 16.447 26.9532 16.8937 28.5385 16.8937 C 30.1237 16.8937 31.6481 16.447 32.8726 16.0875 C 33.5447 15.8907 34.2401 15.6868 34.5665 15.6868 C 35.6294 15.6868 35.7723 16.3256 35.7723 16.9501 C 35.7723 19.6855 35.4116 22.5415 35.0835 24.5754 ZM 21.3047 33.8872 C 21.3047 27.9622 24.1439 24.1335 28.5385 24.1335 C 32.933 24.1335 35.7723 27.9622 35.7723 33.8872 L 35.7723 46.6698 C 35.2808 45.5415 34.8551 42.8306 34.5845 41.0917 C 34.4396 40.1619 34.2936 39.2262 34.1328 38.3473 C 33.2451 33.4937 32.1414 27.4518 28.5385 27.4518 C 24.9355 27.4518 23.8318 33.4937 22.944 38.3473 C 22.7834 39.2262 22.6373 40.1619 22.4924 41.0917 C 22.2218 42.8306 21.7961 45.5415 21.3047 46.6698 L 21.3047 33.8872 ZM 14.2333 21.5933 C 14.4559 21.8199 14.6228 22.0341 14.724 22.1733 C 14.8967 22.7413 15.0343 23.3038 15.0944 23.8813 C 15.2026 24.923 15.2881 26.2216 15.3848 27.6947 C 15.635 31.4926 15.9456 36.2192 16.8741 40.9304 C 17.8513 45.8901 18.5571 49.4736 21.262 49.4736 C 23.6257 49.4736 24.1768 45.9397 24.875 41.4642 C 25.0164 40.5557 25.1587 39.6411 25.3164 38.7809 C 25.7192 36.5762 26.9462 29.8651 28.5385 29.8651 C 30.1307 29.8651 31.3577 36.5762 31.7605 38.7809 C 31.9181 39.6411 32.0605 40.5557 32.2019 41.4642 C 32.9001 45.9397 33.4512 49.4736 35.8149 49.4736 C 38.5198 49.4736 39.2256 45.8901 40.2028 40.9304 C 41.1313 36.2192 41.442 31.4926 41.6921 27.6947 C 41.7889 26.2216 41.8743 24.923 41.9825 23.8813 L 42.0345 23.4944 C 42.0228 23.3156 42.0189 23.1569 42.0227 23.0222 C 42.0721 21.2394 43.0601 19.2599 44.0374 17.723 C 44.7654 15.7131 45.4176 13.2699 45.4176 10.0306 C 45.4176 1.8431 38.7211 0 36.3752 0 C 35.3545 0 34.29 0.257 33.1633 0.5303 C 31.8152 0.8556 30.2882 1.2257 28.5385 1.2257 C 26.7888 1.2257 25.2617 0.8556 23.9136 0.5303 C 22.7869 0.257 21.7224 0 20.7017 0 C 18.356 0 11.6593 1.8431 11.6593 10.0306 C 11.6593 13.157 12.2671 15.5393 12.9641 17.5087 C 13.5618 18.38 14.1029 19.6827 14.2333 21.5933 Z" fill="#8dbd39"></path>			</g>			<g>				<path d="M 59.6797 2.4136 C 60.4132 2.4136 61.2991 2.6278 62.3254 2.8755 C 63.7305 3.2159 65.4795 3.639 67.5165 3.639 C 69.5535 3.639 71.3024 3.2159 72.7075 2.8755 C 73.7339 2.6278 74.6196 2.4136 75.3533 2.4136 C 77.0734 2.4136 81.9844 3.8132 81.9844 10.0306 C 81.9844 13.9474 80.9316 16.533 80.0029 18.8132 C 79.3541 20.4076 78.7412 21.9124 78.5621 23.6317 C 78.4508 24.698 78.3632 26.0272 78.2638 27.5366 C 78.0536 30.7344 77.7964 34.6036 77.1616 38.5153 L 77.1616 33.8872 C 77.1616 31.3583 76.7166 29.2572 75.9724 27.5449 C 76.2522 26.204 77.1616 21.4976 77.1616 16.9501 C 77.1616 14.4106 75.345 13.2734 73.5446 13.2734 C 72.8724 13.2734 72.0848 13.5044 71.1729 13.772 C 70.0404 14.1041 68.7565 14.4801 67.5165 14.4801 C 66.2765 14.4801 64.9926 14.1041 63.86 13.772 C 62.9481 13.5044 62.1605 13.2734 61.4882 13.2734 C 59.688 13.2734 57.8713 14.4106 57.8713 16.9501 C 57.8713 21.4976 58.7808 26.204 59.0605 27.5449 C 58.3163 29.2572 57.8713 31.3583 57.8713 33.8872 L 57.8713 38.5153 C 57.2366 34.6036 56.9794 30.7344 56.769 27.5366 C 56.6698 26.0272 56.5822 24.698 56.4708 23.6317 C 56.3973 22.9246 56.2383 22.2582 56.0457 21.6031 C 56.0363 21.5052 56.0005 21.4126 55.9662 21.3177 C 55.702 20.4781 55.374 19.6575 55.0302 18.8132 C 54.1013 16.533 53.0486 13.9474 53.0486 10.0306 C 53.0486 3.8132 57.9596 2.4136 59.6797 2.4136 ZM 74.0615 24.5754 C 72.2592 22.6399 69.8835 21.7203 67.5165 21.7203 C 65.1493 21.7203 62.7739 22.6399 60.9716 24.5754 C 60.6434 22.5415 60.2827 19.6855 60.2827 16.9501 C 60.2827 16.3256 60.4257 15.6868 61.4882 15.6868 C 61.8148 15.6868 62.5101 15.8907 63.1824 16.0875 C 64.4069 16.447 65.9313 16.8937 67.5165 16.8937 C 69.1017 16.8937 70.6261 16.447 71.8506 16.0875 C 72.5227 15.8907 73.2181 15.6868 73.5446 15.6868 C 74.6073 15.6868 74.7502 16.3256 74.7502 16.9501 C 74.7502 19.6855 74.3896 22.5415 74.0615 24.5754 ZM 60.2827 33.8872 C 60.2827 27.9622 63.1219 24.1335 67.5165 24.1335 C 71.911 24.1335 74.7502 27.9622 74.7502 33.8872 L 74.7502 46.6698 C 74.2588 45.5415 73.8331 42.8306 73.5625 41.0917 C 73.4176 40.1619 73.2716 39.2262 73.1108 38.3473 C 72.2231 33.4937 71.1194 27.4518 67.5165 27.4518 C 63.9136 27.4518 62.8098 33.4937 61.922 38.3473 C 61.7615 39.2262 61.6154 40.1619 61.4705 41.0917 C 61.1998 42.8306 60.7742 45.5415 60.2827 46.6698 L 60.2827 33.8872 ZM 53.2112 21.5933 C 53.4338 21.8199 53.6008 22.0341 53.702 22.1733 C 53.8748 22.7413 54.0123 23.3038 54.0724 23.8813 C 54.1807 24.923 54.2661 26.2216 54.3628 27.6947 C 54.613 31.4926 54.9236 36.2192 55.8522 40.9304 C 56.8293 45.8901 57.5352 49.4736 60.24 49.4736 C 62.6038 49.4736 63.1548 45.9397 63.853 41.4642 C 63.9944 40.5557 64.1367 39.6411 64.2944 38.7809 C 64.6973 36.5762 65.9242 29.8651 67.5165 29.8651 C 69.1088 29.8651 70.3357 36.5762 70.7385 38.7809 C 70.8961 39.6411 71.0386 40.5557 71.1799 41.4642 C 71.8782 45.9397 72.4292 49.4736 74.793 49.4736 C 77.4978 49.4736 78.2036 45.8901 79.1808 40.9304 C 80.1094 36.2192 80.42 31.4926 80.6702 27.6947 C 80.767 26.2216 80.8523 24.923 80.9606 23.8813 L 81.0126 23.4944 C 81.0009 23.3156 80.9969 23.1569 81.0007 23.0222 C 81.0502 21.2394 82.0381 19.2599 83.0154 17.723 C 83.7433 15.7131 84.3956 13.2699 84.3956 10.0306 C 84.3956 1.8431 77.6991 0 75.3533 0 C 74.3325 0 73.2681 0.257 72.1414 0.5303 C 70.7932 0.8556 69.2662 1.2257 67.5165 1.2257 C 65.7667 1.2257 64.2397 0.8556 62.8916 0.5303 C 61.7649 0.257 60.7004 0 59.6797 0 C 57.3339 0 50.6373 1.8431 50.6373 10.0306 C 50.6373 13.157 51.2451 15.5393 51.9421 17.5087 C 52.5398 18.38 53.0809 19.6827 53.2112 21.5933 Z" fill="#8dbd39"></path>			</g>			<path d="M 5.2748 69.9263 L 5.2748 70 L 6.2358 70 C 5.9091 70 5.588 69.9745 5.2748 69.9263 ZM 0 63.8345 C 0 66.9109 2.2909 69.4679 5.2748 69.9263 C 5.588 69.9745 5.9091 70 6.2358 70 L 14.7693 70 L 81.2307 70 L 89.7642 70 L 91.7803 70 L 91.7803 69.6683 C 94.2323 68.8378 96 66.5366 96 63.8345 L 96 35.3628 C 96 34.1503 95.1232 33.1301 93.9143 32.939 C 91.6013 32.574 89.1437 30.8677 86.975 29.3625 C 84.9465 27.9547 83.3442 26.8422 81.9174 26.8422 C 81.6793 26.8422 81.4513 26.8608 81.2307 26.8948 L 81.2307 29.4056 C 81.4476 29.3452 81.6771 29.3082 81.9174 29.3082 C 82.5563 29.3082 84.2115 30.4572 85.5421 31.3807 C 87.8131 32.9581 90.6393 34.9197 93.5209 35.3738 L 93.5056 63.8345 C 93.5056 65.141 92.8173 66.2889 91.7803 66.9474 L 91.7803 66.8422 L 5.2748 66.8422 C 3.6758 66.4216 2.4944 65.546 2.4944 63.8345 L 2.4791 35.3738 C 5.3607 34.9197 8.1869 32.9581 10.4579 31.3807 C 11.7885 30.4572 13.4437 29.3082 14.0826 29.3082 C 14.3229 29.3082 14.5524 29.3452 14.7693 29.4056 L 14.7693 26.8948 C 14.5487 26.8608 14.3207 26.8422 14.0826 26.8422 C 12.6558 26.8422 11.0535 27.9547 9.025 29.3625 C 6.8563 30.8677 4.3987 32.574 2.0857 32.939 C 0.8768 33.1301 0 34.1503 0 35.3628 L 0 63.8345 Z" fill="#8dbd39"></path>			<path d="M 53.167 31.0526 C 53.167 31.0526 49.9456 37.1519 42.3428 31.8481 L 42.1978 34.3842 C 42.1978 34.3842 47.5939 38.1796 52.4905 35.1299 C 57.3872 32.0802 53.167 31.0526 53.167 31.0526 Z" fill="#8dbd39"></path>		</g>	</g></svg>