<svg xmlns="http://www.w3.org/2000/svg" xmlns:xlink="http://www.w3.org/1999/xlink" width="60px" height="px" viewBox="0 0 60 60"><g id="surface1"><path style=" stroke:none;fill-rule:nonzero;fill:rgb(51.372549%,75.294118%,28.235294%);fill-opacity:1;" d="M 27.691406 31.210938 L 27.691406 28.339844 C 27.691406 25.085938 26.4375 22.011719 24.160156 19.683594 C 23.058594 18.558594 21.773438 17.667969 20.375 17.039062 C 20.382812 16.917969 20.390625 16.792969 20.390625 16.671875 C 20.390625 13.617188 17.90625 11.132812 14.851562 11.132812 C 11.796875 11.132812 9.3125 13.617188 9.3125 16.671875 C 9.3125 16.792969 9.320312 16.917969 9.328125 17.039062 C 4.933594 19 2.011719 23.386719 2.011719 28.339844 L 2.011719 31.210938 C 0.84375 31.617188 0 32.726562 0 34.03125 L 0 35.113281 C 0 37.074219 1.597656 38.671875 3.558594 38.671875 L 3.652344 38.671875 C 4.03125 41.246094 5.515625 43.464844 7.605469 44.828125 L 7.605469 45.132812 C 7.605469 47.164062 9.257812 48.816406 11.289062 48.816406 L 18.410156 48.816406 C 20.441406 48.816406 22.09375 47.164062 22.09375 45.132812 L 22.09375 44.828125 C 24.183594 43.464844 25.667969 41.246094 26.050781 38.671875 L 26.144531 38.671875 C 28.105469 38.671875 29.703125 37.074219 29.703125 35.113281 L 29.703125 34.03125 C 29.703125 32.726562 28.859375 31.617188 27.691406 31.210938 Z M 11.78125 18.035156 C 12.25 17.914062 12.53125 17.441406 12.414062 16.972656 C 12.296875 16.503906 11.820312 16.21875 11.351562 16.335938 C 11.257812 16.359375 11.167969 16.386719 11.074219 16.414062 C 11.207031 14.445312 12.847656 12.882812 14.851562 12.882812 C 16.851562 12.882812 18.492188 14.441406 18.628906 16.410156 C 17.65625 16.140625 16.640625 15.988281 15.609375 15.964844 C 15.601562 15.964844 15.59375 15.964844 15.585938 15.964844 C 15.113281 15.964844 14.722656 16.34375 14.710938 16.816406 C 14.699219 17.300781 15.082031 17.703125 15.566406 17.714844 C 21.285156 17.847656 25.941406 22.617188 25.941406 28.339844 L 25.941406 28.578125 C 25.070312 24.574219 21.5 21.5625 17.238281 21.5625 L 12.464844 21.5625 C 8.203125 21.5625 4.632812 24.574219 3.761719 28.578125 L 3.761719 28.339844 C 3.761719 23.464844 7.058594 19.226562 11.78125 18.035156 Z M 1.75 35.113281 L 1.75 34.03125 C 1.75 33.351562 2.304688 32.800781 2.980469 32.800781 L 3.558594 32.800781 L 3.558594 36.921875 C 2.5625 36.921875 1.75 36.109375 1.75 35.113281 Z M 18.410156 47.066406 L 11.289062 47.066406 C 10.441406 47.066406 9.722656 46.515625 9.460938 45.753906 C 10.398438 46.089844 11.410156 46.277344 12.464844 46.277344 L 17.238281 46.277344 C 18.289062 46.277344 19.300781 46.089844 20.242188 45.753906 C 19.980469 46.515625 19.261719 47.066406 18.410156 47.066406 Z M 27.953125 35.113281 C 27.953125 36.109375 27.140625 36.921875 26.144531 36.921875 L 26.132812 36.921875 C 26.066406 36.503906 25.707031 36.1875 25.269531 36.1875 C 24.785156 36.1875 24.394531 36.578125 24.394531 37.0625 L 24.394531 37.367188 C 24.394531 41.316406 21.183594 44.527344 17.238281 44.527344 L 12.464844 44.527344 C 8.519531 44.527344 5.308594 41.316406 5.308594 37.367188 L 5.308594 30.46875 C 5.308594 26.523438 8.519531 23.3125 12.464844 23.3125 L 17.238281 23.3125 C 21.183594 23.3125 24.394531 26.523438 24.394531 30.46875 L 24.394531 33.585938 C 24.394531 34.070312 24.785156 34.460938 25.269531 34.460938 C 25.753906 34.460938 26.144531 34.070312 26.144531 33.585938 L 26.144531 32.800781 L 26.71875 32.800781 C 27.398438 32.800781 27.953125 33.351562 27.953125 34.03125 Z M 27.953125 35.113281 "></path><path style=" stroke:none;fill-rule:nonzero;fill:rgb(51.372549%,75.294118%,28.235294%);fill-opacity:1;" d="M 57.988281 31.210938 L 57.988281 27.605469 C 57.988281 21.992188 53.421875 17.429688 47.8125 17.429688 L 42.484375 17.429688 C 36.875 17.429688 32.308594 21.992188 32.308594 27.605469 L 32.308594 31.210938 C 31.140625 31.617188 30.296875 32.726562 30.296875 34.03125 L 30.296875 35.113281 C 30.296875 37.074219 31.894531 38.671875 33.855469 38.671875 L 33.953125 38.671875 C 34.332031 41.246094 35.816406 43.464844 37.90625 44.828125 L 37.90625 45.132812 C 37.90625 47.164062 39.558594 48.816406 41.589844 48.816406 L 48.710938 48.816406 C 50.742188 48.816406 52.394531 47.164062 52.394531 45.132812 L 52.394531 44.828125 C 54.484375 43.464844 55.964844 41.246094 56.347656 38.671875 L 56.441406 38.671875 C 58.402344 38.671875 60 37.074219 60 35.113281 L 60 34.03125 C 60 32.726562 59.15625 31.617188 57.988281 31.210938 Z M 42.484375 19.179688 L 47.8125 19.179688 C 52.457031 19.179688 56.238281 22.957031 56.238281 27.605469 L 56.238281 28.578125 C 55.367188 24.574219 51.796875 21.5625 47.535156 21.5625 L 42.761719 21.5625 C 38.5 21.5625 34.929688 24.574219 34.058594 28.578125 L 34.058594 27.605469 C 34.058594 22.957031 37.839844 19.179688 42.484375 19.179688 Z M 32.046875 35.113281 L 32.046875 34.03125 C 32.046875 33.351562 32.601562 32.800781 33.28125 32.800781 L 33.855469 32.800781 L 33.855469 36.921875 C 32.859375 36.921875 32.046875 36.109375 32.046875 35.113281 Z M 48.710938 47.066406 L 41.585938 47.066406 C 40.738281 47.066406 40.019531 46.515625 39.757812 45.753906 C 40.699219 46.089844 41.707031 46.277344 42.761719 46.277344 L 47.535156 46.277344 C 48.589844 46.277344 49.597656 46.089844 50.539062 45.753906 C 50.277344 46.515625 49.558594 47.066406 48.710938 47.066406 Z M 58.25 35.113281 C 58.25 36.109375 57.4375 36.921875 56.441406 36.921875 L 56.429688 36.921875 C 56.363281 36.503906 56.003906 36.1875 55.566406 36.1875 C 55.082031 36.1875 54.691406 36.578125 54.691406 37.0625 L 54.691406 37.367188 C 54.691406 41.316406 51.480469 44.527344 47.535156 44.527344 L 42.761719 44.527344 C 38.816406 44.527344 35.605469 41.316406 35.605469 37.367188 L 35.605469 30.46875 C 35.605469 26.523438 38.816406 23.3125 42.761719 23.3125 L 47.535156 23.3125 C 51.480469 23.3125 54.691406 26.523438 54.691406 30.46875 L 54.691406 33.585938 C 54.691406 34.070312 55.082031 34.460938 55.566406 34.460938 C 56.050781 34.460938 56.441406 34.070312 56.441406 33.585938 L 56.441406 32.800781 L 57.015625 32.800781 C 57.695312 32.800781 58.25 33.351562 58.25 34.03125 Z M 58.25 35.113281 "></path><path style=" stroke:none;fill-rule:nonzero;fill:rgb(51.372549%,75.294118%,28.235294%);fill-opacity:1;" d="M 17.046875 38.894531 C 16.585938 38.746094 16.09375 39 15.945312 39.460938 C 15.847656 39.769531 15.4375 40.085938 14.851562 40.085938 C 14.265625 40.085938 13.855469 39.769531 13.757812 39.460938 C 13.609375 39 13.113281 38.746094 12.65625 38.894531 C 12.195312 39.042969 11.941406 39.535156 12.089844 39.996094 C 12.4375 41.078125 13.574219 41.835938 14.851562 41.835938 C 16.128906 41.835938 17.265625 41.078125 17.613281 39.996094 C 17.761719 39.535156 17.507812 39.042969 17.046875 38.894531 Z M 17.046875 38.894531 "></path><path style=" stroke:none;fill-rule:nonzero;fill:rgb(51.372549%,75.294118%,28.235294%);fill-opacity:1;" d="M 19.808594 29.699219 C 17.769531 29.699219 16.066406 31.144531 15.660156 33.0625 L 14.042969 33.0625 C 13.636719 31.144531 11.929688 29.699219 9.894531 29.699219 C 7.558594 29.699219 5.65625 31.601562 5.65625 33.9375 C 5.65625 36.273438 7.558594 38.175781 9.894531 38.175781 C 11.929688 38.175781 13.636719 36.730469 14.042969 34.8125 L 15.660156 34.8125 C 16.066406 36.730469 17.769531 38.175781 19.808594 38.175781 C 22.144531 38.175781 24.046875 36.273438 24.046875 33.9375 C 24.046875 31.601562 22.144531 29.699219 19.808594 29.699219 Z M 9.894531 36.425781 C 8.523438 36.425781 7.40625 35.308594 7.40625 33.9375 C 7.40625 32.566406 8.523438 31.449219 9.894531 31.449219 C 11.265625 31.449219 12.382812 32.566406 12.382812 33.9375 C 12.382812 35.308594 11.265625 36.425781 9.894531 36.425781 Z M 19.808594 36.425781 C 18.4375 36.425781 17.320312 35.308594 17.320312 33.9375 C 17.320312 32.566406 18.4375 31.449219 19.808594 31.449219 C 21.179688 31.449219 22.296875 32.566406 22.296875 33.9375 C 22.296875 35.308594 21.179688 36.425781 19.808594 36.425781 Z M 19.808594 36.425781 "></path><path style=" stroke:none;fill-rule:nonzero;fill:rgb(51.372549%,75.294118%,28.235294%);fill-opacity:1;" d="M 20.957031 33.9375 C 20.957031 34.570312 20.441406 35.082031 19.808594 35.082031 C 19.175781 35.082031 18.660156 34.570312 18.660156 33.9375 C 18.660156 33.304688 19.175781 32.789062 19.808594 32.789062 C 20.441406 32.789062 20.957031 33.304688 20.957031 33.9375 Z M 20.957031 33.9375 "></path><path style=" stroke:none;fill-rule:nonzero;fill:rgb(51.372549%,75.294118%,28.235294%);fill-opacity:1;" d="M 11.042969 33.9375 C 11.042969 34.570312 10.527344 35.082031 9.894531 35.082031 C 9.261719 35.082031 8.746094 34.570312 8.746094 33.9375 C 8.746094 33.304688 9.261719 32.789062 9.894531 32.789062 C 10.527344 32.789062 11.042969 33.304688 11.042969 33.9375 Z M 11.042969 33.9375 "></path><path style=" stroke:none;fill-rule:nonzero;fill:rgb(51.372549%,75.294118%,28.235294%);fill-opacity:1;" d="M 48.003906 35.503906 L 42.292969 35.503906 C 39.554688 35.503906 37.332031 37.730469 37.332031 40.464844 C 37.332031 41.328125 38.035156 42.03125 38.898438 42.03125 L 41.5 42.03125 C 42.332031 42.03125 43.121094 41.816406 43.804688 41.433594 C 44.238281 41.566406 44.6875 41.632812 45.148438 41.632812 C 45.609375 41.632812 46.058594 41.566406 46.492188 41.433594 C 47.175781 41.816406 47.964844 42.03125 48.796875 42.03125 L 51.398438 42.03125 C 52.261719 42.03125 52.964844 41.328125 52.964844 40.464844 C 52.964844 37.730469 50.742188 35.503906 48.003906 35.503906 Z M 48.796875 40.28125 C 48.136719 40.253906 47.558594 40.0625 47.054688 39.714844 C 46.558594 39.351562 46.175781 38.835938 45.984375 38.21875 C 45.867188 37.851562 45.53125 37.605469 45.148438 37.605469 C 44.765625 37.605469 44.429688 37.851562 44.3125 38.21875 C 44.121094 38.835938 43.738281 39.351562 43.242188 39.714844 C 42.738281 40.0625 42.160156 40.253906 41.5 40.28125 L 39.085938 40.28125 C 39.183594 38.59375 40.582031 37.253906 42.292969 37.253906 L 48.003906 37.253906 C 49.714844 37.253906 51.117188 38.59375 51.210938 40.28125 Z M 48.796875 40.28125 "></path><path style=" stroke:none;fill-rule:nonzero;fill:rgb(51.372549%,75.294118%,28.235294%);fill-opacity:1;" d="M 39.601562 32.332031 C 39.070312 32.5625 38.699219 33.089844 38.699219 33.703125 C 38.699219 34.527344 39.367188 35.195312 40.191406 35.195312 C 41.015625 35.195312 41.683594 34.527344 41.683594 33.703125 C 41.683594 33.089844 41.3125 32.5625 40.78125 32.332031 L 40.808594 32.332031 C 42.054688 32.332031 43.070312 31.320312 43.070312 30.070312 C 43.070312 28.824219 42.054688 27.808594 40.808594 27.808594 L 38.847656 27.808594 C 37.597656 27.808594 36.585938 28.824219 36.585938 30.070312 C 36.585938 31.320312 37.597656 32.332031 38.847656 32.332031 Z M 38.335938 30.070312 C 38.335938 29.789062 38.566406 29.5625 38.847656 29.5625 L 40.808594 29.5625 C 41.089844 29.5625 41.320312 29.789062 41.320312 30.070312 C 41.320312 30.355469 41.089844 30.582031 40.808594 30.582031 L 38.847656 30.582031 C 38.566406 30.582031 38.335938 30.351562 38.335938 30.070312 Z M 38.335938 30.070312 "></path><path style=" stroke:none;fill-rule:nonzero;fill:rgb(51.372549%,75.294118%,28.235294%);fill-opacity:1;" d="M 51.746094 27.808594 L 49.78125 27.808594 C 48.535156 27.808594 47.519531 28.824219 47.519531 30.070312 C 47.519531 31.238281 48.410156 32.203125 49.546875 32.320312 C 49 32.542969 48.613281 33.078125 48.613281 33.703125 C 48.613281 34.527344 49.28125 35.195312 50.105469 35.195312 C 50.929688 35.195312 51.597656 34.527344 51.597656 33.703125 C 51.597656 33.089844 51.226562 32.5625 50.695312 32.332031 L 51.746094 32.332031 C 52.992188 32.332031 54.003906 31.320312 54.003906 30.070312 C 54.003906 28.824219 52.992188 27.808594 51.746094 27.808594 Z M 51.746094 30.582031 L 49.78125 30.582031 C 49.5 30.582031 49.269531 30.351562 49.269531 30.070312 C 49.269531 29.789062 49.5 29.5625 49.78125 29.5625 L 51.746094 29.5625 C 52.027344 29.5625 52.253906 29.789062 52.253906 30.070312 C 52.253906 30.351562 52.027344 30.582031 51.746094 30.582031 Z M 51.746094 30.582031 "></path></g></svg>