<svg xmlns="http://www.w3.org/2000/svg" xmlns:xlink="http://www.w3.org/1999/xlink" id="Untitled-P%E1gina%201" viewBox="0 0 52 56" style="background-color:#ffffff00" xml:space="preserve" x="0px" y="0px" width="52px" height="56px">	<g>		<path d="M 5.9837 23.4562 C 6.1708 23.9013 5.9642 24.4148 5.5226 24.6031 C 5.412 24.6503 5.2973 24.6726 5.1845 24.6726 C 4.8462 24.6726 4.5247 24.4722 4.3844 24.1384 C 2.4899 19.629 3.8152 14.3395 7.6072 11.2751 C 11.4744 8.15 16.9558 8.0462 20.9367 11.023 C 21.3219 11.3109 21.4023 11.859 21.1165 12.2469 C 20.8306 12.6349 20.2867 12.716 19.9017 12.428 C 16.5544 9.9253 11.9456 10.0125 8.6938 12.6402 C 5.5051 15.217 4.3906 19.6648 5.9837 23.4562 L 5.9837 23.4562 ZM 42.2005 26.6147 C 41.7907 26.3637 41.2565 26.4955 41.0077 26.9086 C 38.9598 30.3072 37.499 34.0007 36.6658 37.8861 C 36.4512 38.8859 36.2222 40.1583 35.9796 41.5056 C 35.4663 44.3565 34.8843 47.588 34.1259 50.1812 C 32.9937 54.0527 32.0847 54.2231 31.9848 54.2298 C 31.8115 54.2442 30.2349 54.0922 27.471 45.4749 C 26.8452 42.3393 26.1599 39.9158 25.434 38.2708 C 24.5801 36.3354 23.6253 35.3947 22.5153 35.3947 C 21.4053 35.3947 20.4506 36.3354 19.5967 38.2708 C 18.8707 39.9158 18.1856 42.3391 17.5599 45.4747 C 14.7902 54.1093 13.2162 54.2565 13.0438 54.2491 C 12.9445 54.2424 12.0421 54.0733 10.9139 50.2178 C 10.1564 47.629 9.5693 44.3802 9.0516 41.514 C 8.7458 39.8215 8.4817 38.3599 8.2218 37.2477 C 7.2009 32.8768 5.3964 28.7905 2.8579 25.1004 C 0.4826 19.7801 1.9711 13.5292 6.4929 9.8753 C 10.9915 6.24 17.3674 6.1194 21.998 9.5818 C 22.3054 9.8117 22.7258 9.8117 23.033 9.5818 C 24.1586 8.7401 25.4036 8.0963 26.7335 7.6685 C 27.1904 7.5215 27.4426 7.0292 27.2966 6.5689 C 27.1508 6.1086 26.662 5.8546 26.2053 6.0015 C 24.894 6.4232 23.6555 7.0294 22.5153 7.8069 C 17.3014 4.2538 10.3546 4.5114 5.4064 8.5101 C 0.2432 12.6823 -1.4414 19.8325 1.3099 25.898 C 1.3315 25.9459 1.3575 25.9914 1.3872 26.0344 C 3.8239 29.5598 5.5547 33.4674 6.5314 37.6486 C 6.7811 38.7174 7.0415 40.1585 7.343 41.8274 C 8.8203 50.0037 10.0857 55.8062 12.9294 55.9952 C 12.977 55.9985 13.0241 56.0001 13.0714 56 C 15.1332 55.9999 16.9839 52.976 19.2281 45.9647 C 19.2383 45.933 19.2466 45.9007 19.2531 45.868 C 20.9684 37.2444 22.5002 37.1447 22.5155 37.1447 C 22.5308 37.1447 24.0627 37.2444 25.7781 45.868 C 25.7846 45.9007 25.793 45.933 25.803 45.9647 C 28.0945 53.1238 29.9809 56.1187 32.0998 55.9759 C 34.9554 55.7852 36.2174 49.9876 37.6885 41.8182 C 37.9285 40.4856 38.1552 39.2271 38.3635 38.2559 C 39.1558 34.561 40.5451 31.0487 42.4922 27.8169 C 42.741 27.4037 42.6105 26.8655 42.2005 26.6147 L 42.2005 26.6147 ZM 26.9069 17.31 L 28.7299 11.3302 C 28.8419 10.963 29.1786 10.7122 29.56 10.7122 C 29.9413 10.7122 30.2781 10.963 30.39 11.3302 L 32.213 17.31 L 38.1473 19.1467 C 38.5118 19.2596 38.7607 19.5988 38.7607 19.9831 C 38.7607 20.3673 38.5118 20.7066 38.1473 20.8195 L 32.213 22.6564 L 30.39 28.6362 C 30.2781 29.0032 29.9413 29.254 29.56 29.254 C 29.1786 29.254 28.8419 29.0033 28.7299 28.6362 L 26.9069 22.6564 L 20.9728 20.8195 C 20.6082 20.7066 20.3594 20.3673 20.3594 19.9831 C 20.3594 19.5988 20.6082 19.2596 20.9728 19.1467 L 26.9069 17.31 ZM 27.8569 18.8465 L 24.185 19.9831 L 27.8569 21.1198 C 28.132 21.205 28.3475 21.422 28.432 21.6992 L 29.5601 25.3995 L 30.6882 21.6992 C 30.7728 21.422 30.9883 21.205 31.2634 21.1198 L 34.9352 19.9831 L 31.2634 18.8465 C 30.9883 18.7614 30.7728 18.5442 30.6882 18.2671 L 29.5601 14.5669 L 28.432 18.2671 C 28.3474 18.5443 28.132 18.7614 27.8569 18.8465 L 27.8569 18.8465 ZM 29.4221 6.3875 C 29.4221 6.0031 29.6709 5.6639 30.0355 5.5511 L 33.7806 4.3918 L 34.9311 0.6181 C 35.0432 0.2507 35.3799 0 35.7612 0 C 36.1425 0 36.4792 0.2507 36.5912 0.6181 L 37.7418 4.3918 L 41.4871 5.5511 C 41.8517 5.6639 42.1005 6.0032 42.1005 6.3875 C 42.1005 6.7717 41.8517 7.111 41.4871 7.2238 L 37.7418 8.3832 L 36.5912 12.1569 C 36.4792 12.5243 36.1425 12.775 35.7612 12.775 C 35.3799 12.775 35.0432 12.5243 34.9311 12.1569 L 33.7806 8.3832 L 30.0354 7.2238 C 29.6709 7.1111 29.4221 6.7718 29.4221 6.3875 ZM 33.2476 6.3875 L 34.7307 6.8466 C 35.0057 6.9317 35.2212 7.1488 35.3057 7.426 L 35.7612 8.9203 L 36.2167 7.426 C 36.3012 7.1488 36.5167 6.9317 36.7917 6.8466 L 38.2748 6.3875 L 36.7919 5.9286 C 36.5167 5.8433 36.3012 5.6262 36.2167 5.349 L 35.7612 3.8548 L 35.3057 5.349 C 35.2212 5.6262 35.0057 5.8433 34.7305 5.9286 L 33.2476 6.3875 ZM 52 16.2961 C 52 16.6804 51.7512 17.0196 51.3867 17.1325 L 46.5154 18.6402 L 45.0189 23.549 C 44.9069 23.9162 44.5703 24.1669 44.1888 24.1669 C 43.8075 24.1669 43.4708 23.9162 43.3588 23.549 L 41.8624 18.6404 L 36.9911 17.1327 C 36.6264 17.0197 36.3776 16.6804 36.3776 16.2962 C 36.3776 15.912 36.6264 15.5727 36.991 15.4598 L 41.8624 13.9521 L 43.3588 9.0434 C 43.4708 8.6762 43.8075 8.4254 44.1888 8.4254 C 44.5703 8.4254 44.9069 8.6762 45.0189 9.0434 L 46.5154 13.9521 L 51.3868 15.4598 C 51.7512 15.5726 52 15.9117 52 16.2961 L 52 16.2961 ZM 48.1745 16.2961 L 45.5654 15.4884 C 45.2903 15.4033 45.0748 15.1862 44.9902 14.9091 L 44.1887 12.2799 L 43.3872 14.9091 C 43.3026 15.1862 43.0872 15.4033 42.8121 15.4884 L 40.2031 16.2961 L 42.812 17.1036 C 43.0872 17.1889 43.3026 17.406 43.3872 17.6831 L 44.1887 20.3122 L 44.9903 17.6831 C 45.0748 17.406 45.2903 17.1889 45.5654 17.1036 L 48.1745 16.2961 Z" fill="#8dbd39"></path>	</g></svg>