<svg xmlns="http://www.w3.org/2000/svg" xmlns:xlink="http://www.w3.org/1999/xlink" id="Untitled-P%E1gina%201" viewBox="0 0 65 60" style="background-color:#ffffff00" xml:space="preserve" x="0px" y="0px" width="65px" height="60px">	<g>		<path d="M 65 35.325 C 64.9077 35.7548 64.8408 36.1917 64.7195 36.6133 C 63.5627 40.631 60.9585 43.111 56.8302 43.9348 C 56.4381 44.0132 56.2687 44.199 56.1149 44.5316 C 52.4656 52.4174 46.4438 57.4774 37.9362 59.3892 C 26.0797 62.0535 13.8202 55.7915 8.9585 44.6992 C 8.7511 44.2257 8.5128 43.9994 7.9746 43.9057 C 4.0117 43.2149 0.7874 39.9066 0.1343 35.9271 C 0.1008 35.7245 0.0453 35.5259 0 35.325 C 0 34.6075 0 33.8896 0 33.1716 C 0.1216 32.6629 0.2146 32.1453 0.3696 31.6471 C 1.5415 27.879 4.0492 25.5292 7.9181 24.6826 C 8.4745 24.561 8.7609 24.323 8.9927 23.8151 C 11.6956 17.8917 16.0179 13.5638 21.9508 10.8554 C 22.4711 10.6179 22.679 10.3738 22.6829 9.7534 C 22.7152 4.523 26.7227 0.375 32.025 0.0203 C 36.9581 -0.3096 41.4884 3.4135 42.2415 8.4297 C 42.3131 8.9077 42.3553 9.4009 42.3213 9.8806 C 42.2876 10.3531 42.4407 10.573 42.8795 10.7709 C 48.9517 13.5104 53.3567 17.9227 56.094 23.9852 C 56.2517 24.3349 56.4166 24.5395 56.8365 24.623 C 61.245 25.4988 64.1344 28.4984 64.9017 32.9467 C 64.9153 33.0248 64.9664 33.0968 65 33.1716 C 65 33.8896 65 34.6075 65 35.325 ZM 41.8389 13.1001 C 41.7953 13.1505 41.7769 13.1643 41.7688 13.1826 C 41.6912 13.3554 41.619 13.5309 41.5378 13.702 C 39.7921 17.3862 36.9045 19.4047 32.8058 19.6336 C 31.8513 19.6867 31.2795 19.233 31.2363 18.4619 C 31.1929 17.6822 31.7675 17.1854 32.7313 17.0993 C 33.3595 17.0432 34.0045 16.9888 34.601 16.8029 C 36.9487 16.0714 38.5286 14.5197 39.4026 12.2207 C 30.2609 9.0611 17.162 12.4358 11.4852 24.4698 C 5.8187 36.4824 11.2811 50.4099 23.5673 55.6711 C 35.3367 60.7108 49.3303 54.8459 54.0736 42.8596 C 58.9419 30.5581 52.5828 17.6775 41.8389 13.1001 ZM 25.2817 9.6004 C 30.1168 8.2212 34.9208 8.2511 39.7262 9.5873 C 39.8856 5.8999 36.3793 2.5317 32.4872 2.5431 C 28.5864 2.5546 25.0496 5.9787 25.2817 9.6004 ZM 57.3464 41.144 C 60.2325 40.6448 62.6077 37.2094 62.4504 33.871 C 62.3108 30.9055 59.7354 27.6365 57.3516 27.4553 C 58.5771 32.0127 58.5692 36.5694 57.3464 41.144 ZM 7.6688 27.3777 C 4.6074 28.1586 2.4253 31.2977 2.547 34.6302 C 2.6558 37.6093 5.0425 40.6979 7.6515 41.143 C 6.4335 36.5691 6.4175 32.012 7.6688 27.3777 Z" fill="#8dbd39"></path>		<path d="M 32.5115 39.1252 C 36.4464 39.1252 40.3815 39.1249 44.3164 39.1255 C 45.6367 39.1259 46.0483 39.5611 45.996 40.8962 C 45.7271 47.7489 40.2423 53.3842 33.5665 53.847 C 26.3198 54.3495 20.113 49.1767 19.1422 42.3832 C 19.0619 41.8207 19.0186 41.2502 18.9993 40.6825 C 18.9626 39.6082 19.4373 39.1276 20.5162 39.1266 C 24.5145 39.1232 28.5131 39.1252 32.5115 39.1252 ZM 21.6295 41.688 C 22.0424 47.2005 27.3304 51.6339 33.0615 51.3257 C 39.5791 50.9754 43.1912 45.4695 43.3254 41.6992 C 41.7916 41.6992 40.2576 41.6992 38.677 41.6992 C 38.677 42.7494 38.6782 43.7592 38.6768 44.7691 C 38.6748 46.1455 38.2721 46.5555 36.916 46.5562 C 33.9773 46.5579 31.0385 46.5576 28.0999 46.5562 C 26.7362 46.5555 26.3256 46.1451 26.3232 44.7856 C 26.3215 43.7606 26.323 42.7352 26.323 41.688 C 24.7028 41.688 23.1671 41.688 21.6295 41.688 ZM 31.1802 43.9931 C 31.1802 43.1736 31.1802 42.4264 31.1802 41.6917 C 30.3969 41.6917 29.6641 41.6917 28.938 41.6917 C 28.5527 43.8922 28.7164 44.0888 30.8473 44.0215 C 30.9496 44.0182 31.0519 44.0043 31.1802 43.9931 ZM 33.7994 44.0175 C 34.4991 44.0175 35.1704 44.0314 35.84 44.0034 C 35.9425 43.9987 36.1172 43.8051 36.1217 43.6932 C 36.1484 43.0272 36.1349 42.3591 36.1349 41.7065 C 35.2933 41.7065 34.5442 41.7065 33.7994 41.7065 C 33.7994 42.4865 33.7994 43.2178 33.7994 44.0175 Z" fill="#8dbd39"></path>		<path d="M 41.8522 31.8873 C 39.064 31.8913 36.8853 29.8095 36.7545 27.1715 C 36.7142 26.3559 37.1801 25.7562 37.8997 25.6978 C 38.6453 25.6373 39.2089 26.1022 39.2614 26.9485 C 39.3784 28.8353 41.1252 29.6406 42.34 29.2575 C 43.274 28.9626 43.9586 28.1866 44.0654 27.2055 C 44.0813 27.059 44.0844 26.9099 44.1133 26.7657 C 44.2528 26.0723 44.7969 25.6459 45.4662 25.6971 C 46.132 25.7483 46.5923 26.2606 46.6135 26.9742 C 46.6796 29.2048 44.9377 31.3427 42.6959 31.7722 C 42.365 31.8355 42.0273 31.8639 41.8522 31.8873 Z" fill="#8dbd39"></path>		<path d="M 24.5126 31.8876 C 21.9124 31.8737 19.7699 29.8314 19.6016 27.2055 C 19.549 26.3879 20.001 25.7776 20.7161 25.7001 C 21.4789 25.6174 22.0347 26.1048 22.1185 26.9763 C 22.2208 28.0385 22.7092 28.8221 23.7252 29.1998 C 24.6132 29.5302 25.4364 29.343 26.1439 28.7199 C 26.6602 28.2655 26.8879 27.6788 26.9415 26.9892 C 27.025 25.9112 28.0697 25.3026 28.8596 25.9055 C 29.1741 26.1453 29.4316 26.666 29.4403 27.0646 C 29.4965 29.6762 27.1869 31.9015 24.5126 31.8876 Z" fill="#8dbd39"></path>	</g></svg>