<svg xmlns="http://www.w3.org/2000/svg" xmlns:xlink="http://www.w3.org/1999/xlink" id="Untitled-P%E1gina%201" viewBox="0 0 47 56" style="background-color:#ffffff00" xml:space="preserve" x="0px" y="0px" width="47px" height="56px">	<g>		<path d="M 38.0476 20.16 L 26.8571 20.16 L 26.8571 22.4 L 38.0476 22.4 L 38.0476 20.16 Z" fill="#8dbd39"></path>		<path d="M 38.0476 26.88 L 26.8571 26.88 L 26.8571 29.12 L 38.0476 29.12 L 38.0476 26.88 Z" fill="#8dbd39"></path>		<path d="M 38.0476 33.6 L 26.8571 33.6 L 26.8571 35.84 L 38.0476 35.84 L 38.0476 33.6 Z" fill="#8dbd39"></path>		<path d="M 17.9048 17.92 C 17.3955 17.92 16.9059 18.0381 16.3868 18.1639 C 15.8164 18.3017 15.2252 18.445 14.5476 18.445 C 13.8701 18.445 13.2789 18.3017 12.7084 18.1639 C 12.1893 18.0381 11.6997 17.92 11.1905 17.92 C 9.4594 17.92 6.7143 19.25 6.7143 22.82 C 6.7143 24.8194 7.252 26.1395 7.6836 27.2004 C 7.9273 27.7966 8.136 28.3117 8.1885 28.8159 C 8.2344 29.2556 8.2704 29.8025 8.3109 30.4238 C 8.4136 31.9813 8.5535 34.1163 8.9589 36.1736 C 9.4168 38.4902 9.7775 40.32 11.4309 40.32 C 12.9597 40.32 13.2439 38.4934 13.5739 36.3792 C 13.6329 35.9953 13.693 35.6092 13.7597 35.245 C 13.8745 34.6183 14.187 32.912 14.5476 32.165 C 14.9083 32.912 15.2208 34.6183 15.3355 35.245 C 15.4022 35.6092 15.4623 35.9953 15.5213 36.3792 C 15.8513 38.4934 16.1355 40.32 17.6643 40.32 C 19.3178 40.32 19.6784 38.4902 20.1363 36.1736 C 20.5417 34.1163 20.6816 31.9813 20.7843 30.4238 C 20.8248 29.8025 20.8608 29.2556 20.9056 28.8159 C 20.9592 28.3117 21.1679 27.7966 21.4116 27.2004 C 21.8433 26.1395 22.381 24.8194 22.381 22.82 C 22.381 19.25 19.6358 17.92 17.9048 17.92 ZM 19.3385 26.355 C 19.0566 27.0463 18.7659 27.7615 18.6796 28.584 C 18.6315 29.0467 18.5943 29.622 18.5506 30.2761 C 18.4468 31.8577 18.3178 33.8242 17.9397 35.7405 C 17.8971 35.9559 17.849 36.1998 17.7977 36.447 C 17.7747 36.3005 17.7529 36.1605 17.7332 36.0347 C 17.6698 35.63 17.6064 35.2242 17.5365 34.8425 C 17.1158 32.5424 16.5923 29.68 14.5476 29.68 C 12.503 29.68 11.9795 32.5424 11.5587 34.8425 C 11.4888 35.2242 11.4254 35.63 11.3621 36.0347 C 11.3424 36.1605 11.3205 36.3005 11.2976 36.447 C 11.2462 36.1998 11.1981 35.9559 11.1555 35.7405 C 10.7774 33.8242 10.6484 31.8577 10.5446 30.2761 C 10.5009 29.622 10.4637 29.0467 10.4146 28.584 C 10.3293 27.7615 10.0386 27.0463 9.7567 26.355 C 9.3611 25.3838 8.9524 24.3797 8.9524 22.82 C 8.9524 20.2322 11.1686 20.16 11.1905 20.16 C 11.4331 20.16 11.7806 20.2442 12.1817 20.3416 C 12.8155 20.4947 13.6034 20.685 14.5476 20.685 C 15.4918 20.685 16.2797 20.4947 16.9136 20.3416 C 17.3146 20.2442 17.6622 20.16 17.9048 20.16 C 17.9266 20.16 20.1429 20.2322 20.1429 22.82 C 20.1429 24.3797 19.7341 25.3838 19.3385 26.355 Z" fill="#8dbd39"></path>		<path d="M 28.9827 4.48 C 28.4625 1.9272 26.2014 0 23.5 0 C 20.7986 0 18.5375 1.9272 18.0184 4.48 L 0 4.48 L 0 56 L 47 56 L 47 4.48 L 28.9827 4.48 ZM 13.4286 6.72 L 33.5714 6.72 L 33.5714 8.96 C 33.5714 10.1949 32.5671 11.2 31.3333 11.2 L 15.6667 11.2 C 14.4329 11.2 13.4286 10.1949 13.4286 8.96 L 13.4286 6.72 ZM 23.5 2.24 C 24.9567 2.24 26.1873 3.1795 26.6506 4.48 L 20.3494 4.48 C 20.8127 3.1795 22.0433 2.24 23.5 2.24 ZM 2.2381 6.72 L 11.1905 6.72 L 11.1905 8.96 C 11.1905 11.4308 13.198 13.44 15.6667 13.44 L 31.3333 13.44 C 33.802 13.44 35.8095 11.4308 35.8095 8.96 L 35.8095 6.72 L 44.7619 6.72 L 44.7619 42.56 L 33.5714 42.56 L 33.5714 53.76 L 2.2381 53.76 L 2.2381 6.72 ZM 43.1795 44.8 L 35.8095 52.1763 L 35.8095 44.8 L 43.1795 44.8 ZM 37.3919 53.76 L 44.7619 46.3837 L 44.7619 53.76 L 37.3919 53.76 Z" fill="#8dbd39"></path>	</g></svg>