<svg xmlns="http://www.w3.org/2000/svg" id="Capa_1" viewBox="0 0 512 512"><g><path d="m343.108 69.005c-23.647-12.203-52.552-7.907-71.924 10.69l-10.215 9.799c-2.785 2.674-7.15 2.672-9.935 0l-10.213-9.797c-19.375-18.598-48.28-22.894-71.924-10.693-19.968 10.292-39.636 25.036-58.461 43.821-2.932 2.926-2.937 7.674-.011 10.607 2.927 2.932 7.676 2.937 10.607.011 17.729-17.691 36.146-31.522 54.741-41.107 17.944-9.261 39.914-5.974 54.66 8.184l10.215 9.799c8.609 8.259 22.096 8.26 30.705 0l10.216-9.801c14.746-14.155 36.711-17.444 54.662-8.181 41.456 21.371 81.995 64.077 114.15 120.252 20.362 35.574 35.393 73.38 42.355 105.338-54.603-82.633-136.875-139.995-236.735-139.995-100.188 0-182.181 58.703-236.7 140.434 10.041-45.776 37.253-108.134 78.918-159.536 2.608-3.218 2.114-7.941-1.104-10.549s-7.942-2.113-10.549 1.104c-55.2 68.101-85.33 152.425-86.564 200.522-.102 3.84 2.425 7.195 6.145 8.157 3.745.97 7.565-.773 9.323-4.149 4.486-8.612 15.49-28.233 33.263-50.918 12.553 2.306 25.586 1.347 37.988-3.082l67.713-24.184c19.802-7.073 40.264-12.048 61.06-14.863l-10.266 10.266c-2.515 2.516-3.261 6.265-1.899 9.551 1.361 3.287 4.539 5.41 8.097 5.41h16.366v55.685c-2.859-.619 6.449 1.444-61.332-13.619-23.012-5.112-47.292-2.123-68.374 8.417-3.704 1.853-5.206 6.358-3.354 10.063 1.854 3.705 6.357 5.206 10.063 3.354 18.008-9.005 38.751-11.557 58.41-7.191l60.624 13.472c19.624 4.361 42.056 4.953 64.341 0l60.625-13.472c19.655-4.369 40.401-1.815 58.409 7.191l61.863 30.931c7.1 3.55 10.56 11.906 8.05 19.436l-3.18 9.54c-1.469 4.406-5.576 7.367-10.222 7.367h-6.983c-.76-13.449-11.939-24.16-25.576-24.16-4.586 0-8.891 1.217-12.619 3.337-4.498-12.015-16.094-20.594-29.66-20.594-9.475 0-17.984 4.189-23.792 10.806-5.81-7.116-14.646-11.669-24.528-11.669-9.225 0-17.538 3.967-23.33 10.283-14.711-21.287-45.772-21.82-61.229-1.166-6.882-9.195-17.858-15.157-30.2-15.157-12.855 0-24.221 6.471-31.029 16.322-5.792-6.316-14.105-10.283-23.329-10.283-9.882 0-18.718 4.553-24.528 11.669-5.807-6.616-14.316-10.806-23.791-10.806-13.566 0-25.163 8.578-29.66 20.594-3.728-2.12-8.033-3.337-12.619-3.337-13.636 0-24.816 10.711-25.576 24.16h-6.983c-4.646 0-8.753-2.961-10.222-7.367l-3.18-9.541c-2.51-7.53.95-15.885 8.05-19.435l30.224-15.112c3.704-1.853 5.206-6.358 3.354-10.063-1.852-3.704-6.355-5.204-10.063-3.354l-30.224 15.112c-13.733 6.867-20.427 23.03-15.572 37.595l3.18 9.54c3.514 10.542 13.34 17.626 24.453 17.626h6.939v6.305c0 5.243 4.266 9.509 9.509 9.509h26.73v1.869c0 5.474 4.453 9.927 9.927 9.927h43.465c2.999 0 5.686-1.342 7.508-3.451h207.275c1.822 2.109 4.509 3.451 7.508 3.451h43.464c5.474 0 9.927-4.453 9.927-9.927v-1.869h26.73c5.243 0 9.509-4.266 9.509-9.509v-6.305h6.939c11.113 0 20.939-7.083 24.453-17.626l3.18-9.539c4.856-14.566-1.839-30.729-15.572-37.596l-61.863-30.931c-21.082-10.542-45.365-13.531-68.373-8.417-68.538 15.23-59.114 13.138-61.333 13.619v-55.685h16.367c3.558 0 6.737-2.124 8.097-5.412 1.361-3.288.613-7.037-1.9-9.549l-10.266-10.266c20.797 2.815 41.258 7.79 61.06 14.862l6.366 2.275c3.909 1.396 8.195-.646 9.586-4.539 1.394-3.901-.639-8.193-4.539-9.586l-6.367-2.275c-26.742-9.55-54.631-15.449-82.939-17.568l-17.481-17.481c-3.418-3.41-8.975-3.407-12.389.005l-17.476 17.476c-28.307 2.119-56.196 8.018-82.938 17.568l-67.713 24.183c-6.964 2.487-14.253 3.616-21.539 3.383 39.376-45.361 104.007-96.237 195.864-96.237 79.079 0 144.867 37.234 196.108 96.23-7.366.267-14.737-.858-21.784-3.376l-27.349-9.767c-3.899-1.393-8.193.639-9.586 4.541-1.393 3.901.641 8.193 4.541 9.586l27.349 9.766c12.237 4.372 25.323 5.45 38.208 3.041 18.373 23.456 29.207 43.343 33.006 50.801 1.749 3.438 5.583 5.177 9.321 4.228 3.741-.949 6.284-4.307 6.183-8.168-1.954-74.162-70.313-219.997-168.887-270.81zm-272.884 354.078v-14.354c0-5.856 4.764-10.62 10.62-10.62s10.62 4.764 10.62 10.62v14.354zm36.24-25.571c0-9.186 7.474-16.659 16.66-16.659s16.659 7.473 16.659 16.659v37.368h-33.319zm48.319-.863c0-9.186 7.474-16.66 16.66-16.66s16.659 7.474 16.659 16.66v34.779h-33.319zm48.319 0c0-12.516 10.183-22.699 22.699-22.699 12.517 0 22.7 10.183 22.7 22.699v34.779h-45.399zm60.4 0c0-12.516 10.183-22.699 22.699-22.699s22.699 10.183 22.699 22.699v34.779h-45.398zm60.398 0c0-9.186 7.474-16.66 16.66-16.66s16.659 7.474 16.659 16.66v34.779h-33.319zm81.638 38.23h-33.318v-37.368c0-9.186 7.474-16.659 16.66-16.659s16.659 7.473 16.659 16.659v37.368zm36.24-11.796h-21.239v-14.354c0-5.856 4.764-10.62 10.62-10.62s10.62 4.764 10.62 10.62v14.354zm-185.777-191.508 29.518 29.519h-7.546c-4.832 0-8.764 3.932-8.764 8.764v64.267c-8.773.864-17.643.864-26.416 0v-64.267c0-4.832-3.932-8.764-8.764-8.764h-7.546z" fill="#000000" style="fill: rgb(138, 197, 56);"></path></g></svg>